<svg xmlns="http://www.w3.org/2000/svg" width="400" height="520" viewBox="0 0 400 520">
  <defs>
    <linearGradient id="bg4" x1="0" y1="0" x2="1" y2="1">
      <stop offset="0%" stop-color="#0b0a0d"/>
      <stop offset="100%" stop-color="#1f1010"/>
    </linearGradient>
    <radialGradient id="glow4" cx="50%" cy="40%" r="45%">
      <stop offset="0%" stop-color="#ff2f6d" stop-opacity="0.12"/>
      <stop offset="100%" stop-color="transparent"/>
    </radialGradient>
    <filter id="blur4">
      <feGaussianBlur stdDeviation="1.5"/>
    </filter>
  </defs>
  <rect width="400" height="520" fill="url(#bg4)"/>
  <circle cx="200" cy="190" r="150" fill="url(#glow4)"/>
  <!-- Berserker muscular figure -->
  <path d="M110 440 L110 300 C110 250 140 200 170 190 C165 160 160 110 175 85 C180 105 185 120 190 135 C195 120 200 105 205 85 C220 110 215 160 210 190 C240 200 270 250 270 300 L270 440 Z" fill="#0e0d12" stroke="#ff2f6d" stroke-width="1.5" stroke-opacity="0.3"/>
  <!-- Cracking glowing markings on skin -->
  <path d="M140 250 L150 265 L145 275 M260 250 L250 265 L255 275 M155 300 L165 310 L160 320 M245 300 L235 310 L240 320" stroke="rgba(255,47,109,0.35)" stroke-width="1" fill="none"/>
  <!-- Fierce eyes -->
  <ellipse cx="183" cy="175" rx="7" ry="4" fill="#ff2f6d" opacity="0.7" filter="url(#blur4)"/>
  <ellipse cx="217" cy="175" rx="7" ry="4" fill="#ff2f6d" opacity="0.7" filter="url(#blur4)"/>
  <!-- Tribal war paint lines -->
  <line x1="155" y1="160" x2="170" y2="165" stroke="rgba(255,47,109,0.3)" stroke-width="1.5"/>
  <line x1="245" y1="160" x2="230" y2="165" stroke="rgba(255,47,109,0.3)" stroke-width="1.5"/>
  <rect x="8" y="8" width="384" height="504" rx="12" fill="none" stroke="rgba(255,47,109,0.12)" stroke-width="1"/>
</svg>
